<?xml version="1.0" standalone="no"?><!DOCTYPE svg PUBLIC "-//W3C//DTD SVG 1.1//EN" "http://www.w3.org/Graphics/SVG/1.1/DTD/svg11.dtd"><svg t="1566960107018" class="icon" viewBox="0 0 1026 1024" version="1.1" xmlns="http://www.w3.org/2000/svg" p-id="1055" width="16.03125" height="16" xmlns:xlink="http://www.w3.org/1999/xlink"><defs><style type="text/css"></style></defs><path d="M864 1024c-89.6 0-160-70.4-160-153.6 0-19.2 6.4-38.4 12.8-57.6l-89.6-83.2c-76.8 51.2-179.2 57.6-262.4 12.8l-70.4 70.4c6.4 19.2 12.8 32 12.8 57.6 0 83.2-70.4 153.6-160 153.6C70.4 1024 0 947.2 0 864 0 774.4 70.4 704 160 704c19.2 0 44.8 6.4 64 12.8l64-64C249.6 608 236.8 556.8 236.8 512c0-51.2 19.2-96 44.8-134.4L204.8 307.2C192 313.6 179.2 313.6 160 313.6 70.4 313.6 0 243.2 0 153.6 0 70.4 70.4 0 160 0c44.8 0 89.6 19.2 121.6 51.2C307.2 83.2 320 121.6 313.6 160c0 19.2-6.4 38.4-12.8 57.6l70.4 70.4C448 249.6 550.4 249.6 640 300.8l89.6-83.2c-6.4-19.2-12.8-38.4-12.8-57.6 0-83.2 70.4-153.6 160-153.6 44.8 0 83.2 19.2 115.2 51.2C1011.2 83.2 1024 121.6 1024 160c0 83.2-70.4 153.6-160 153.6-12.8 0-32 0-44.8-6.4l-89.6 89.6c19.2 38.4 19.2 70.4 19.2 108.8 0 44.8-6.4 83.2-25.6 121.6l89.6 89.6c51.2-19.2 128-12.8 172.8 38.4 32 32 44.8 70.4 38.4 115.2C1024 953.6 953.6 1024 864 1024zM640 646.4l160 160-12.8 19.2c-6.4 12.8-12.8 32-12.8 44.8 0 57.6 51.2 96 96 96 57.6 0 96-51.2 96-96 0-25.6-6.4-51.2-25.6-70.4-32-32-89.6-38.4-115.2-19.2l-19.2 12.8-153.6-153.6 12.8-19.2c19.2-32 32-70.4 32-108.8 0-44.8-6.4-70.4-19.2-96l-12.8-19.2 153.6-153.6L832 243.2C838.4 256 851.2 256 864 256c57.6 0 96-51.2 96-96 0-25.6-6.4-44.8-25.6-64-19.2-19.2-44.8-32-70.4-32-57.6 0-96 51.2-96 96 0 19.2 6.4 38.4 12.8 51.2l12.8 19.2-153.6 153.6L627.2 364.8C537.6 307.2 448 307.2 384 352L364.8 364.8 230.4 224l12.8-19.2C249.6 192 256 172.8 256 153.6c0-25.6-6.4-44.8-19.2-64C211.2 70.4 185.6 57.6 160 57.6c-51.2 0-96 44.8-96 96C57.6 211.2 108.8 256 160 256c19.2 0 25.6 0 38.4-6.4l19.2-12.8 147.2 140.8L345.6 390.4C320 422.4 294.4 460.8 294.4 512c0 51.2 25.6 96 44.8 128l19.2 19.2-134.4 134.4-19.2-12.8C192 768 179.2 768 160 768c-57.6 0-96 51.2-96 96 0 57.6 44.8 102.4 96 102.4 57.6 0 96-51.2 96-96 0-19.2-6.4-32-12.8-44.8l-12.8-19.2 140.8-134.4L384 678.4c32 19.2 64 32 102.4 32 44.8 0 89.6-12.8 128-44.8L640 646.4z" p-id="1056"></path></svg>