<?xml version="1.0" standalone="no"?><!DOCTYPE svg PUBLIC "-//W3C//DTD SVG 1.1//EN" "http://www.w3.org/Graphics/SVG/1.1/DTD/svg11.dtd"><svg t="1572580674859" class="icon" viewBox="0 0 1024 1024" version="1.1" xmlns="http://www.w3.org/2000/svg" p-id="17884" width="16" height="16" xmlns:xlink="http://www.w3.org/1999/xlink"><defs><style type="text/css"></style></defs><path d="M938.666667 684.813333V522.666667a53.393333 53.393333 0 0 0-53.333334-53.333334H554.666667V339.186667c48.626667-9.906667 85.333333-53.006667 85.333333-104.52 0-58.813333-47.853333-106.666667-106.666667-106.666667s-106.666667 47.853333-106.666666 106.666667c0 51.513333 36.706667 94.613333 85.333333 104.52V469.333333H181.333333a53.393333 53.393333 0 0 0-53.333333 53.333334v162.146666c-48.626667 9.906667-85.333333 53.006667-85.333333 104.52 0 58.813333 47.853333 106.666667 106.666666 106.666667s106.666667-47.853333 106.666667-106.666667c0-51.513333-36.706667-94.613333-85.333333-104.52V522.666667a10.666667 10.666667 0 0 1 10.666666-10.666667h330.666667v172.813333c-48.626667 9.906667-85.333333 53.006667-85.333333 104.52 0 58.813333 47.853333 106.666667 106.666666 106.666667s106.666667-47.853333 106.666667-106.666667c0-51.513333-36.706667-94.613333-85.333333-104.52V512h330.666666a10.666667 10.666667 0 0 1 10.666667 10.666667v162.146666c-48.626667 9.906667-85.333333 53.006667-85.333333 104.52 0 58.813333 47.853333 106.666667 106.666666 106.666667s106.666667-47.853333 106.666667-106.666667c0-51.513333-36.706667-94.613333-85.333333-104.52z" fill="#707070" p-id="17885"></path></svg>