<?xml version="1.0" standalone="no"?><!DOCTYPE svg PUBLIC "-//W3C//DTD SVG 1.1//EN" "http://www.w3.org/Graphics/SVG/1.1/DTD/svg11.dtd"><svg t="1563978445569" class="icon" viewBox="0 0 1024 1024" version="1.1" xmlns="http://www.w3.org/2000/svg" p-id="2742" width="16" height="16" xmlns:xlink="http://www.w3.org/1999/xlink"><defs><style type="text/css"></style></defs><path d="M488 784q10.016 10.016 24 10.016t24-10.016l156-156q11.008-10.016 11.008-24t-10.496-24.512-24.512-10.496-24 11.008l-96.992 96V99.008q0-15.008-10.496-24.992T512 64t-24 10.016-10.016 24.992v576.992l-96.992-96.992q-11.008-10.016-24.992-10.016t-24 10.496-10.016 24.512 10.016 24zM924.512 640q-14.496 0-24.512 10.496t-10.016 24.512v195.008q0 8.992-6.016 15.008t-15.008 6.016H152.96q-8.992 0-15.008-6.016t-6.016-15.008v-195.008q0-14.016-10.016-24.512T97.408 640t-24.512 10.496-10.016 24.512v223.008q0 26.016 18.016 44t44 18.016h772q26.016 0 44-18.496t18.016-43.488v-223.008q0-14.016-10.016-24.512t-24.512-10.496z" p-id="2743" fill="#2c2c2c"></path></svg>