<?xml version="1.0" standalone="no"?><!DOCTYPE svg PUBLIC "-//W3C//DTD SVG 1.1//EN" "http://www.w3.org/Graphics/SVG/1.1/DTD/svg11.dtd"><svg t="1572488788038" class="icon" viewBox="0 0 1024 1024" version="1.1" xmlns="http://www.w3.org/2000/svg" p-id="1182" width="16" height="16" xmlns:xlink="http://www.w3.org/1999/xlink"><defs><style type="text/css"></style></defs><path d="M48.536566 176.691717v661.488485" p-id="1183" fill="#8a8a8a"></path><path d="M570.660202 977.596768h105.593535c35.193535 0 70.4-23.466667 76.25697-64.530101V344.022626c0-41.063434-35.193535-76.269899-76.25697-76.269899H124.806465c-41.063434 0-76.269899 35.193535-76.269899 76.269899v557.317172c0 41.063434 35.193535 76.269899 76.269899 76.269899h445.853737zM136.546263 913.066667c-11.739798 0-17.596768-5.869899-17.596768-17.596768V355.749495c0-11.726869 5.869899-17.596768 11.726869-17.596768h533.850505c11.726869 0 17.596768 5.869899 17.596767 17.596768v539.720404c0 11.726869-5.869899 11.726869-17.596767 17.596768H136.546263z m0 0" p-id="1184" fill="#8a8a8a"></path><path d="M811.196768 748.812929c-5.869899-5.869899-5.869899-17.596768-5.869899-23.466666 0-11.739798 0-17.596768 5.869899-23.466667 5.85697-5.869899 17.596768-11.739798 23.466666-11.739798h46.933334c11.739798 0 17.596768-5.85697 17.596767-17.596768V132.822626c0-11.726869-5.85697-17.596768-17.596767-17.596767H353.603232c-11.726869 5.869899-17.596768 5.869899-17.596767 23.466666v52.790303c0 17.596768-11.726869 35.206465-35.193536 35.206465-5.869899 0-11.726869-5.869899-17.596767-11.739798-11.739798-5.869899-11.739798-11.726869-11.739798-23.466667V126.952727c0-41.063434 35.206465-76.269899 76.269899-76.269899h551.447272c41.063434 0 76.269899 35.193535 76.269899 76.269899v557.317172c0 5.85697 0 17.596768-5.869899 23.466667-11.726869 29.336566-41.063434 46.933333-70.4 52.803232h-58.660202c-11.739798-5.869899-17.609697-5.869899-29.336565-11.726869zM512 602.14303L335.993535 426.149495c-11.726869-11.726869-35.193535-11.726869-52.790303 0-5.869899 11.739798-5.869899 35.193535 5.869899 52.803232l146.65697 146.65697-146.65697 146.669899c-5.869899 5.85697-11.739798 17.596768-11.739798 23.466667 0 11.739798 5.869899 17.609697 11.739798 23.466666 5.85697 5.869899 17.596768 11.739798 23.466667 11.739798 11.739798 0 17.609697-5.869899 23.466667-11.739798l175.993535-175.993535c5.869899-5.869899 11.726869-17.596768 11.726869-23.466667s-5.85697-11.739798-11.726869-17.609697z m0 0" p-id="1185" fill="#8a8a8a"></path></svg>
