<?xml version="1.0" standalone="no"?><!DOCTYPE svg PUBLIC "-//W3C//DTD SVG 1.1//EN" "http://www.w3.org/Graphics/SVG/1.1/DTD/svg11.dtd"><svg t="1572579809698" class="icon" viewBox="0 0 1024 1024" version="1.1" xmlns="http://www.w3.org/2000/svg" p-id="10353" width="16" height="16" xmlns:xlink="http://www.w3.org/1999/xlink"><defs><style type="text/css"></style></defs><path d="M512 179.2a332.8 332.8 0 1 1 0 665.6 332.8 332.8 0 0 1 0-665.6z m0 51.2a281.6 281.6 0 1 0 0 563.2 281.6 281.6 0 0 0 0-563.2z" p-id="10354" fill="#e51400"></path><path d="M634.0096 603.5456a21.504 21.504 0 1 1-30.464 30.464l-91.392-91.392-91.392 91.392a21.504 21.504 0 0 1-30.464-30.464l91.392-91.392-91.392-91.392a21.504 21.504 0 0 1 30.464-30.464l91.392 91.392 91.392-91.392a21.5552 21.5552 0 0 1 30.464 30.464l-91.392 91.392 91.392 91.392z" p-id="10355" fill="#e51400"></path></svg>