<?xml version="1.0" standalone="no"?><!DOCTYPE svg PUBLIC "-//W3C//DTD SVG 1.1//EN" "http://www.w3.org/Graphics/SVG/1.1/DTD/svg11.dtd"><svg t="1572488473808" class="icon" viewBox="0 0 1024 1024" version="1.1" xmlns="http://www.w3.org/2000/svg" p-id="874" width="16" height="16" xmlns:xlink="http://www.w3.org/1999/xlink"><defs><style type="text/css"></style></defs><path d="M814.933333 682.666667v-66.133334h89.6c10.666667 0 17.066667-6.4 17.066667-17.066666V426.666667c0-4.266667 0-8.533333-2.133333-10.666667-2.133333-4.266667-6.4-4.266667-12.8-4.266667h-91.733334v-66.133333c0-21.333333-17.066667-38.4-38.4-38.4H539.733333v-64h2.133334c42.666667-12.8 72.533333-53.333333 72.533333-100.266667 0-27.733333-10.666667-55.466667-32-72.533333-19.2-19.2-46.933333-32-72.533333-32C452.266667 38.4 405.333333 85.333333 405.333333 142.933333c0 46.933333 32 87.466667 76.8 100.266667h2.133334v61.866667H260.266667c-21.333333 0-38.4 14.933333-38.4 38.4v68.266666H117.333333c-8.533333 0-17.066667 6.4-17.066666 17.066667v172.8c0 8.533333 6.4 17.066667 17.066666 17.066667h104.533334v64c0 10.666667 4.266667 19.2 12.8 27.733333 8.533333 8.533333 17.066667 12.8 27.733333 12.8h224v59.733333h-2.133333c-44.8 12.8-76.8 55.466667-76.8 100.266667 0 27.733333 10.666667 55.466667 32 72.533333 19.2 19.2 46.933333 32 72.533333 32 57.6 0 104.533333-46.933333 104.533333-104.533333 0-46.933333-29.866667-85.333333-72.533333-98.133333h-2.133333v-64h234.666666c21.333333 0 38.4-17.066667 38.4-38.4z m53.333334-221.866667v102.4h-187.733334v-102.4h187.733334zM475.733333 177.066667c-10.666667-10.666667-14.933333-23.466667-12.8-36.266667 0-25.6 23.466667-49.066667 49.066667-49.066667 27.733333 0 49.066667 23.466667 49.066667 49.066667 0 14.933333-6.4 27.733333-14.933334 36.266667-8.533333 8.533333-21.333333 12.8-36.266666 12.8-12.8 0-25.6-4.266667-34.133334-12.8z m-320 384v-102.4h189.866667v102.4H155.733333z m405.333334 322.133333c0 14.933333-6.4 27.733333-14.933334 36.266667-8.533333 8.533333-21.333333 12.8-36.266666 12.8s-27.733333-6.4-36.266667-14.933334c-6.4-6.4-10.666667-19.2-10.666667-34.133333 0-27.733333 23.466667-49.066667 49.066667-49.066667 27.733333 0 49.066667 21.333333 49.066667 49.066667z m198.4-217.6H277.333333v-49.066667h102.4c10.666667 0 17.066667-6.4 17.066667-17.066666V426.666667c0-8.533333-6.4-17.066667-17.066667-17.066667h-104.533333v-53.333333h486.4v53.333333h-115.2c-8.533333 0-17.066667 6.4-17.066667 17.066667v172.8c0 8.533333 6.4 17.066667 17.066667 17.066666h115.2v49.066667z" fill="#00C1DE" p-id="875"></path></svg>