<?xml version="1.0" standalone="no"?><!DOCTYPE svg PUBLIC "-//W3C//DTD SVG 1.1//EN" "http://www.w3.org/Graphics/SVG/1.1/DTD/svg11.dtd"><svg t="1558939515885" class="icon" style="" viewBox="0 0 1024 1024" version="1.1" xmlns="http://www.w3.org/2000/svg" p-id="1967" xmlns:xlink="http://www.w3.org/1999/xlink" width="16" height="16"><defs><style type="text/css"></style></defs><path d="M665.6 225.706667c-46.933333-4.266667-88.32 30.293333-92.586667 77.653333L562.346667 426.666667H682.666667v85.333333h-128l-18.773334 216.32a170.069333 170.069333 0 0 1-184.746666 154.88 170.965333 170.965333 0 0 1-130.56-79.786667l64-64c10.24 31.573333 38.4 55.893333 73.813333 58.88 46.933333 4.266667 88.32-30.293333 92.586667-77.653333L469.333333 512H341.333333v-85.333333h135.253334l11.52-130.986667c8.106667-93.866667 90.88-163.413333 184.746666-154.88 55.893333 4.693333 102.826667 35.84 130.56 79.786667l-64 64c-10.24-31.573333-38.4-55.893333-73.813333-58.88z" fill="#707070" p-id="1968"></path></svg>