<?xml version="1.0" standalone="no"?><!DOCTYPE svg PUBLIC "-//W3C//DTD SVG 1.1//EN" "http://www.w3.org/Graphics/SVG/1.1/DTD/svg11.dtd"><svg t="1559705147954" class="icon" style="" viewBox="0 0 1024 1024" version="1.1" xmlns="http://www.w3.org/2000/svg" p-id="5828" xmlns:xlink="http://www.w3.org/1999/xlink" width="16" height="16"><defs><style type="text/css"></style></defs><path d="M905 896q-22 0-66.25-1.75t-66.75-1.75q-22 0-66 1.75t-66 1.75q-12 0-18.5-10.25t-6.5-22.75q0-15.5 8.5-23t19.5-8.5 25.5-3.5 22.5-7.5q16.5-10.5 16.5-70l-0.5-195.5q0-10.5-0.5-15.5-6.5-2-25-2l-337.5 0q-19 0-25.5 2-0.5 5-0.5 15.5l-0.5 185.5q0 71 18.5 82 8 5 24 6.5t28.5 1.75 22.5 7.5 10 22.75q0 13-6.25 24t-18.25 11q-23.5 0-69.75-1.75t-69.25-1.75q-21.5 0-64 1.75t-63.5 1.75q-11.5 0-17.75-10.5t-6.25-22.5q0-15 7.75-22.5t18-8.75 23.75-3.75 21-7.5q16.5-11.5 16.5-71.5l-0.5-28.5 0-406.5q0-1.5 2.5-13t0-18.25-0.75-19.25-1.75-21-3.25-18.25-5.5-15.75-8-9q-7.5-5-22.5-6t-26.5-1-20.5-7-9-22.5q0-13 6-24t18-11q23 0 69.25 1.75t69.25 1.75q21 0 63.25-1.75t63.25-1.75q12.5 0 18.75 11t6.25 24q0 15-8.5 21.75t-19.25 7.25-24.75 2-21.5 6.5q-17.5 10.5-17.5 80l0.5 160q0 10.5 0.5 16 6.5 1.5 19.5 1.5l349.5 0q12.5 0 19-1.5 0.5-5.5 0.5-16l0.5-160q0-69.5-17.5-80-9-5.5-29.25-6.25t-33-6.5-12.75-24.75q0-13 6.25-24t18.75-11q22 0 66 1.75t66 1.75q21.5 0 64.5-1.75t64.5-1.75q12.5 0 18.75 11t6.25 24q0 15-8.75 22t-20 7.25-25.75 1.5-22 6.25q-17.5 11.5-17.5 80.5l0.5 471.5q0 59.5 17 70 8 5 23 6.75t26.75 2.25 20.75 7.75 9 22.25q0 13-6 24t-18 11z" p-id="5829" fill="#cdcdcd"></path></svg>