<?xml version="1.0" standalone="no"?><!DOCTYPE svg PUBLIC "-//W3C//DTD SVG 1.1//EN" "http://www.w3.org/Graphics/SVG/1.1/DTD/svg11.dtd"><svg t="1565686698325" class="icon" viewBox="0 0 1024 1024" version="1.1" xmlns="http://www.w3.org/2000/svg" p-id="4405" width="16" height="16" xmlns:xlink="http://www.w3.org/1999/xlink"><defs><style type="text/css"></style></defs><path d="M895.786667 758.165333l-0.149334-0.554666-2.432-2.474667a97.066667 97.066667 0 0 0-7.616-7.68c-41.514667-42.176-50.432-53.76-50.432-53.76a385.621333 385.621333 0 0 0 54.528-197.546667C889.685333 281.045333 714.389333 106.666667 498.176 106.666667 281.941333 106.666667 106.666667 281.045333 106.666667 496.149333c0 215.104 175.274667 389.482667 391.509333 389.482667 72.576 0 140.288-19.989333 198.570667-54.229333l53.930666 52.48c2.325333 2.517333 4.8 4.906667 7.381334 7.168l3.2 3.093333 0.853333 0.256a96.042667 96.042667 0 0 0 133.674667-136.234667z m-397.610667 30.08c-162.176 0-293.632-130.773333-293.632-292.096S336 204.032 498.176 204.032c162.154667 0 293.610667 130.773333 293.610667 292.117333S660.330667 788.266667 498.176 788.266667z m117.376-414.122666h-228.053333c-16.384-0.064-31.850667 12.309333-31.936 25.514666-0.085333 13.226667 13.12 24 29.482666 24.064l230.506667-0.704c16.362667 0.064 29.653333-8.341333 29.717333-21.568 0.106667-13.226667-13.354667-27.221333-29.717333-27.306666z m0 203.626666H379.306667c-13.653333-0.064-25.066667 14.293333-25.152 25.322667-0.064 11.008 11.52 23.488 25.173333 23.552h236.202667c13.653333 0.064 28.266667-10.752 28.373333-21.76 0.064-11.029333-14.72-27.050667-28.373333-27.093333z m0-97.728l-230.890667-0.490666c-16.362667-0.064-29.717333 10.602667-29.802666 23.808-0.085333 13.226667 16.256 25.472 32.64 25.536l227.264 0.085333c16.384 0.042667 29.738667-10.602667 29.802666-23.829333 0.106667-13.226667-12.650667-25.045333-29.013333-25.109334z" fill="#2c2c2c" p-id="4406"></path></svg>
