<?xml version="1.0" standalone="no"?><!DOCTYPE svg PUBLIC "-//W3C//DTD SVG 1.1//EN" "http://www.w3.org/Graphics/SVG/1.1/DTD/svg11.dtd"><svg t="1565760108992" class="icon" viewBox="0 0 1024 1024" version="1.1" xmlns="http://www.w3.org/2000/svg" p-id="1196" width="16" height="16" xmlns:xlink="http://www.w3.org/1999/xlink"><defs><style type="text/css"></style></defs><path d="M891.05 346.368H673.494c-23.786-22.144-51.669-44.288-73.813-66.603-6.741-6.72-14.443-9.024-21.675-8.362-0.981 0-1.962-0.171-2.944-0.171H118.464c-1.792 0-3.264 0.17-4.907 0.341-14.293 0.32-28.224 10.326-28.224 30.016v404.907c0 3.285 0.491 6.4 1.152 9.173 1.302 13.312 10.496 25.6 27.734 25.6h149.76a81.13 81.13 0 0 0 80.746 73.515c10.496 0 21.163-2.133 30.678-6.08a195.477 195.477 0 0 0 123.861 44.63c44.8 0 88.747-15.915 123.861-44.63 9.686 3.947 20.182 6.08 30.678 6.08a81.13 81.13 0 0 0 80.725-73.515h149.461c16.256 3.286 35.115-6.549 35.115-29.866V376.896c0.17-20.01-13.952-30.357-28.053-30.507zM344.705 698.944c19.541 0 34.795 15.253 34.795 34.773 0 19.542-15.254 34.795-34.774 34.795-19.541 0-34.773-15.253-34.773-34.773 0-19.542 15.232-34.774 34.773-34.774z m309.12 0c19.52 0 34.773 15.253 34.773 34.773 0 19.542-15.253 34.795-34.773 34.795-19.541 0-34.773-15.253-34.773-34.773 0-19.542 15.402-34.774 34.773-34.774zM429.547 523.243a80.597 80.597 0 0 0 69.888 40.362 81.344 81.344 0 0 0 69.888-40.362 148.395 148.395 0 0 1 80.874 129.45 81.152 81.152 0 0 0-77.269 81.046c0 15.914 4.907 31.488 14.293 45.12a151.21 151.21 0 0 1-87.637 28.373 150.827 150.827 0 0 1-87.595-28.373c9.344-13.632 14.272-29.056 14.272-45.12a81.152 81.152 0 0 0-77.269-81.067 147.35 147.35 0 0 1 80.555-129.43z m34.944-40.683c0-19.541 15.253-34.773 34.773-34.773 19.52 0 34.773 15.232 34.773 34.773 0 19.52-15.253 34.773-34.773 34.773-19.52 0-34.773-15.253-34.773-34.773z m253.141 201.45a84.523 84.523 0 0 0-21.653-19.349c0.17-2.624 0.32-5.077 0.32-8.213a195.627 195.627 0 0 0-116.651-179.477 80.597 80.597 0 0 0-80.384-75.478c-42.667 0-77.44 32.982-80.384 75.478-71.04 31.168-116.65 101.397-116.65 179.477v8.725a84.288 84.288 0 0 0-20.843 18.71 25.472 25.472 0 0 0-5.078-0.491H143.253V328.96H567.68c22.315 20.843 65.621 58.581 77.44 68.907 3.435 3.776 7.872 6.25 13.61 6.25h202.945V683.52H723.86c-2.282 0-4.266 0.17-6.229 0.49zM118.315 228.758c-38.23 0-38.23-57.92-0.171-58.09h502.87c0.98 0 1.983 0.17 2.965 0.17 7.21-0.661 14.933 1.643 21.653 8.363l74.325 74.325h178.176c28.054 0 28.054 57.899 0 57.899H704.64c-7.04 0-12.288-3.605-15.744-9.024a28.459 28.459 0 0 1-7.381-5.397l-68.267-68.267H118.336z" fill="#2c2c2c" p-id="1197"></path></svg>