<?xml version="1.0" standalone="no"?><!DOCTYPE svg PUBLIC "-//W3C//DTD SVG 1.1//EN" "http://www.w3.org/Graphics/SVG/1.1/DTD/svg11.dtd"><svg t="1572580719284" class="icon" viewBox="0 0 1024 1024" version="1.1" xmlns="http://www.w3.org/2000/svg" p-id="18822" width="16" height="16" xmlns:xlink="http://www.w3.org/1999/xlink"><defs><style type="text/css"></style></defs><path d="M882.752 434.752l-77.12 0c-25.536-33.664-60.608-69.568-92.736-99.712l-2.688-2.432c-1.856-1.856-9.792-9.792-21.696-20.928C650.88 276.48 600.64 234.048 558.528 214.144l52.48 0c42.688 0 77.248-34.56 77.248-77.248 0-42.624-34.56-77.248-77.248-77.248L410.176 59.648c-42.624 0-77.248 34.624-77.248 77.248 0 42.688 34.624 77.248 77.248 77.248l62.272 0C414.08 238.272 349.824 297.28 318.4 328.704 292.544 351.424 249.536 392.256 218.752 434.752L141.248 434.752C98.56 434.752 64 469.376 64 512s34.56 77.248 77.248 77.248l74.944 0c23.296 30.656 54.656 62.528 81.92 88 11.904 11.264 20.416 18.752 22.464 20.48l2.624 2.496c44.224 41.344 100.352 88.64 145.6 109.632L402.432 809.856c-42.624 0-77.184 34.624-77.184 77.248s34.56 77.248 77.184 77.248l216.32 0c42.624 0 77.248-34.624 77.248-77.248s-34.624-77.248-77.248-77.248L547.84 809.856c53.952-24.896 123.52-87.36 155.84-118.272 23.872-22.016 65.6-62.528 97.088-102.4l81.984 0C925.44 589.248 960 554.688 960 512S925.44 434.752 882.752 434.752zM683.712 672.896c0 0-126.464 120.768-173.888 121.6-43.072 0.768-147.648-95.232-166.592-113.024-1.92-1.856-3.008-2.88-3.008-2.88s-8.896-7.744-22.08-19.968c-18.24-17.152-44.416-43.008-66.624-69.376l90.496 0c42.624 0 77.248-34.624 77.248-77.248S384.704 434.752 342.08 434.752L253.824 434.752C289.984 390.4 335.872 349.696 338.432 347.456c4.096-4.096 131.904-132.032 189.248-116.8C569.6 241.728 635.008 299.008 668.48 330.432c13.12 12.352 21.376 20.672 21.376 20.672s1.088 0.96 3.008 2.752c10.56 9.92 47.04 44.992 77.184 80.96l-88.128 0C639.296 434.752 604.672 469.376 604.672 512s34.624 77.248 77.248 77.248l82.816 0C727.872 632 683.712 672.896 683.712 672.896z" p-id="18823" fill="#707070"></path></svg>