<?xml version="1.0" standalone="no"?><!DOCTYPE svg PUBLIC "-//W3C//DTD SVG 1.1//EN" "http://www.w3.org/Graphics/SVG/1.1/DTD/svg11.dtd"><svg t="1562588012611" class="icon" viewBox="0 0 1024 1024" version="1.1" xmlns="http://www.w3.org/2000/svg" p-id="9269" xmlns:xlink="http://www.w3.org/1999/xlink" width="16" height="16"><defs><style type="text/css"></style></defs><path d="M812.8 515.2c-28.8 0-51.2 22.4-51.2 51.2 0 160-129.6 289.6-289.6 289.6-160 0-289.6-129.6-289.6-289.6s129.6-289.6 289.6-289.6l0 0 0 84.8 204.8-136L472 89.6l0 84.8 0 0C256 174.4 80 350.4 80 566.4s176 392 392 392C688 958.4 864 782.4 864 566.4 864 537.6 840 515.2 812.8 515.2" p-id="9270" fill="#424242"></path></svg>