<?xml version="1.0" standalone="no"?><!DOCTYPE svg PUBLIC "-//W3C//DTD SVG 1.1//EN" "http://www.w3.org/Graphics/SVG/1.1/DTD/svg11.dtd"><svg t="1565272498837" class="icon" viewBox="0 0 1024 1024" version="1.1" xmlns="http://www.w3.org/2000/svg" p-id="1233" width="16" height="16" xmlns:xlink="http://www.w3.org/1999/xlink"><defs><style type="text/css"></style></defs><path d="M282.923 598.507l134.741 17.984-17.92-125.76-38.89 35.84c-21.227-22.315-50.923-66.987-50.923-143.68 0-104.64 91.136-179.627 188.629-179.627 97.43 0 188.63 92.203 188.63 152.683 0 0 6.25-5.376 0 15.317 0 0 15.53-3.797 55.68 4.16 0 0-1.814-8.064-1.814-19.477 0-40.576-51.2-206.614-242.496-206.614C339.35 149.397 256 275.883 256 382.891c0 89.749 34.56 147.989 64.384 181.013l-37.461 34.603zM616 737.387L589.397 600 467.2 663.637l46.144 22.87C499.477 716.587 439.04 832 327.851 832 200.064 832 139.2 719.467 139.2 634.41c0-85.12 51.2-140.437 98.56-159.85l-8.853-28.416-4.694-31.488s-138.88 59.37-138.88 219.755c0 160.384 111.147 251.52 242.496 251.52 123.414 0 210.987-96.363 237.398-173.696L616 737.408z m80.17-336.534c-46.57 0-80.34 8.384-104.81 18.923l-22.933-45.867-61.654 122.731 137.131 28.416-28.16-56.405c19.243-7.744 45.44-13.867 80.427-13.867 109.802 0 188.629 86.016 188.629 188.63 0 110.4-98.944 188.629-188.65 188.629-89.686 0-125.74-53.91-125.74-53.91l-35.967 44.907c60.544 65.984 161.706 62.89 161.706 62.89 153.195 0 242.518-122.986 242.518-242.517 0-119.509-87.36-242.56-242.496-242.56z" fill="#00C1DE" p-id="1234"></path></svg>