<?xml version="1.0" standalone="no"?><!DOCTYPE svg PUBLIC "-//W3C//DTD SVG 1.1//EN" "http://www.w3.org/Graphics/SVG/1.1/DTD/svg11.dtd"><svg t="1572579758407" class="icon" viewBox="0 0 1024 1024" version="1.1" xmlns="http://www.w3.org/2000/svg" p-id="9499" width="16" height="16" xmlns:xlink="http://www.w3.org/1999/xlink"><defs><style type="text/css"></style></defs><path d="M512 179.2a332.8 332.8 0 0 1 332.8 332.8512A332.8 332.8 0 1 1 512 179.2z m0 51.2a281.6 281.6 0 0 0-281.6 281.6512A281.6 281.6 0 1 0 512 230.4z" p-id="9500" fill="#3bc1ab"></path><path d="M488.704 646.1952a26.2144 26.2144 0 0 1-40.5504 3.84l-105.5744-107.2128a27.0336 27.0336 0 0 1 0-37.8368 26.2144 26.2144 0 0 1 37.4272 0l86.528 87.8592 196.6592-200.96a26.2144 26.2144 0 0 1 37.4784 0c10.24 10.496 10.24 27.392 0 37.888l-211.968 216.4224z" p-id="9501" fill="#3bc1ab"></path></svg>