<?xml version="1.0" standalone="no"?><!DOCTYPE svg PUBLIC "-//W3C//DTD SVG 1.1//EN" "http://www.w3.org/Graphics/SVG/1.1/DTD/svg11.dtd"><svg t="1565686488800" class="icon" viewBox="0 0 1024 1024" version="1.1" xmlns="http://www.w3.org/2000/svg" p-id="3001" width="16" height="16" xmlns:xlink="http://www.w3.org/1999/xlink"><defs><style type="text/css"></style></defs><path d="M923.152 338.296c-22.477-53.141-54.647-100.859-95.618-141.831-40.971-40.971-88.689-73.141-141.83-95.618C630.669 77.57 572.227 65.768 512 65.768c-60.227 0-118.669 11.803-173.704 35.08-53.141 22.477-100.859 54.647-141.831 95.618-40.971 40.971-73.141 88.689-95.618 141.831C77.57 393.331 65.768 451.773 65.768 512c0 60.227 11.803 118.669 35.08 173.704 22.477 53.141 54.647 100.859 95.618 141.83 40.971 40.971 88.689 73.142 141.831 95.618 55.034 23.277 113.477 35.08 173.704 35.08 60.227 0 118.669-11.803 173.704-35.08 53.141-22.477 100.859-54.647 141.83-95.618s73.142-88.689 95.618-141.83c23.277-55.035 35.08-113.478 35.08-173.704-0.001-60.227-11.803-118.669-35.081-173.704zM512 894.232c-210.764 0-382.232-171.469-382.232-382.232S301.236 129.768 512 129.768 894.232 301.236 894.232 512 722.764 894.232 512 894.232z" p-id="3002" fill="#2c2c2c"></path><path d="M686.613 493.668H543.361V270.756c0-17.673-14.327-32-32-32s-32 14.327-32 32v254.912c0 17.673 14.327 32 32 32h175.252c17.673 0 32-14.327 32-32 0-17.673-14.327-32-32-32z" p-id="3003" fill="#2c2c2c"></path></svg>
