<?xml version="1.0" standalone="no"?><!DOCTYPE svg PUBLIC "-//W3C//DTD SVG 1.1//EN" "http://www.w3.org/Graphics/SVG/1.1/DTD/svg11.dtd"><svg t="1565272190510" class="icon" viewBox="0 0 1024 1024" version="1.1" xmlns="http://www.w3.org/2000/svg" p-id="799" width="16" height="16" xmlns:xlink="http://www.w3.org/1999/xlink"><defs><style type="text/css"></style></defs><path d="M249.557 291.307l51.968 51.946L95.552 549.205 43.605 497.26z" fill="#00C1DE" p-id="800"></path><path d="M43.605 497.707l51.947-51.947 205.952 205.952-51.947 51.968zM717.547 703.68l-51.968-51.947L871.53 445.781l51.968 51.947z" fill="#00C1DE" p-id="801"></path><path d="M923.52 497.28l-51.968 51.947L665.6 343.253l51.947-51.968zM619.733 135.872l25.984 25.984-361.77 361.75-25.963-25.963z" fill="#00C1DE" p-id="802"></path><path d="M437.483 626.325l-25.984 25.963-154.454-154.453 25.984-25.963z" fill="#00C1DE" p-id="803"></path><path d="M489.643 523.307l25.984 25.984-102.998 102.997-25.984-25.984zM657.77 188.203c-35.456 0-64.278-28.587-64.278-63.702 0-35.136 28.822-63.722 64.278-63.722s64.298 28.586 64.298 63.722-28.842 63.702-64.298 63.702z m0-91.008c-15.19 0-27.542 12.245-27.542 27.306 0 15.04 12.374 27.307 27.542 27.307 15.21 0 27.562-12.267 27.562-27.307 0-15.061-12.373-27.306-27.562-27.306zM346.88 859.69l-25.984-25.983 361.77-361.771 25.963 25.984z" fill="#00C1DE" p-id="804"></path><path d="M529.152 369.216l25.963-25.963 154.453 154.454-25.984 25.962z" fill="#00C1DE" p-id="805"></path><path d="M477.013 472.235L451.03 446.25l102.976-102.976 25.984 25.962z m-168.17 335.104c35.456 0 64.298 28.586 64.298 63.722s-28.842 63.723-64.298 63.723-64.299-28.587-64.299-63.723 28.843-63.722 64.299-63.722z m0 91.029c15.189 0 27.541-12.245 27.541-27.307 0-15.061-12.373-27.306-27.541-27.306-15.211 0-27.563 12.245-27.563 27.306 0 15.062 12.373 27.307 27.563 27.307z" fill="#00C1DE" p-id="806"></path></svg>