<?xml version="1.0" standalone="no"?><!DOCTYPE svg PUBLIC "-//W3C//DTD SVG 1.1//EN" "http://www.w3.org/Graphics/SVG/1.1/DTD/svg11.dtd"><svg t="1559705433311" class="icon" style="" viewBox="0 0 1024 1024" version="1.1" xmlns="http://www.w3.org/2000/svg" p-id="8093" xmlns:xlink="http://www.w3.org/1999/xlink" width="16" height="16"><defs><style type="text/css"></style></defs><path d="M665.6 225.706667C618.666667 221.44 577.28 256 573.013333 303.36L562.346667 426.666667 682.666667 426.666667 682.666667 512 554.666667 512 535.893333 728.32C527.786667 822.186667 445.013333 891.733333 351.146667 883.2 295.253333 878.506667 248.32 847.36 220.586667 803.413333L284.586667 739.413333C294.826667 770.986667 322.986667 795.306667 358.4 798.293333 405.333333 802.56 446.72 768 450.986667 720.64L469.333333 512 341.333333 512 341.333333 426.666667 476.586667 426.666667 488.106667 295.68C496.213333 201.813333 578.986667 132.266667 672.853333 140.8 728.746667 145.493333 775.68 176.64 803.413333 220.586667L739.413333 284.586667C729.173333 253.013333 701.013333 228.693333 665.6 225.706667Z" p-id="8094" fill="#e6e6e6"></path></svg>