<?xml version="1.0" standalone="no"?><!DOCTYPE svg PUBLIC "-//W3C//DTD SVG 1.1//EN" "http://www.w3.org/Graphics/SVG/1.1/DTD/svg11.dtd"><svg t="1572577747313" class="icon" viewBox="0 0 1024 1024" version="1.1" xmlns="http://www.w3.org/2000/svg" p-id="9427" width="16" height="16" xmlns:xlink="http://www.w3.org/1999/xlink"><defs><style type="text/css"></style></defs><path d="M512 170.666667V42.666667l-170.666667 170.666666 170.666667 170.666667v-128c141.44 0 256 114.56 256 256 0 43.306667-10.88 83.84-29.653333 119.68l62.293333 62.293333C833.706667 641.066667 853.333333 578.986667 853.333333 512c0-188.586667-152.746667-341.333333-341.333333-341.333333z m0 597.333333c-141.44 0-256-114.56-256-256 0-43.306667 10.88-83.84 29.653333-119.68l-62.293333-62.293333C190.293333 382.933333 170.666667 445.013333 170.666667 512c0 188.586667 152.746667 341.333333 341.333333 341.333333v128l170.666667-170.666666-170.666667-170.666667v128z" p-id="9428" fill="#cdcdcd"></path></svg>