<?xml version="1.0" standalone="no"?><!DOCTYPE svg PUBLIC "-//W3C//DTD SVG 1.1//EN" "http://www.w3.org/Graphics/SVG/1.1/DTD/svg11.dtd"><svg t="1565686873205" class="icon" viewBox="0 0 1024 1024" version="1.1" xmlns="http://www.w3.org/2000/svg" p-id="6558" width="16" height="16" xmlns:xlink="http://www.w3.org/1999/xlink"><defs><style type="text/css"></style></defs><path d="M213.27 512a42.667 42.667 0 0 1-42.603-42.667v-256c0-23.466 19.157-42.666 42.602-42.666h596.48a42.667 42.667 0 0 1 42.603 42.666 42.667 42.667 0 0 1-42.603 42.71H255.851v213.269A42.667 42.667 0 0 1 213.269 512z m254.314-42.667a42.667 42.667 0 0 1 42.603-42.709 42.667 42.667 0 0 1 42.602 42.71A42.667 42.667 0 0 1 510.187 512a42.667 42.667 0 0 1-42.603-42.667z m123.35 0a42.667 42.667 0 0 1 42.602-42.709 42.667 42.667 0 0 1 42.603 42.71A42.667 42.667 0 0 1 633.536 512a42.667 42.667 0 0 1-42.603-42.667z m218.943-42.709c23.467 0 42.454 19.2 42.454 42.688v255.979a42.667 42.667 0 0 1-42.582 42.666H255.851l-85.184 85.376V725.291a42.667 42.667 0 0 1 42.602-42.688h554.027V469.312a42.667 42.667 0 0 1 42.581-42.667z m-464.81 42.71a42.667 42.667 0 0 1 42.602-42.667 42.667 42.667 0 0 1 42.603 42.666c0 23.638-19.008 42.688-42.603 42.688a42.667 42.667 0 0 1-42.602-42.666z" fill="#cdcdcd" p-id="6559"></path></svg>
