<?xml version="1.0" standalone="no"?><!DOCTYPE svg PUBLIC "-//W3C//DTD SVG 1.1//EN" "http://www.w3.org/Graphics/SVG/1.1/DTD/svg11.dtd"><svg t="1565686938593" class="icon" viewBox="0 0 1024 1024" version="1.1" xmlns="http://www.w3.org/2000/svg" p-id="7581" width="16" height="16" xmlns:xlink="http://www.w3.org/1999/xlink"><defs><style type="text/css"></style></defs><path d="M517.397 149.333c93.867 0 169.963 71.51 169.963 159.723a151.339 151.339 0 0 1-19.03 73.43l137.558 100.33a108.821 108.821 0 0 1 60.16-17.92c57.835 0 104.747 44.075 104.747 98.432s-46.912 98.41-104.747 98.41c-57.813 0-104.747-44.053-104.747-98.41 0-12.245 2.432-23.979 6.784-34.816L630.528 428.224a173.867 173.867 0 0 1-82.347 37.867v153.28c61.163 13.141 106.795 64.554 106.795 126.016 0 71.381-61.61 129.28-137.6 129.28-75.968 0-137.557-57.899-137.557-129.28 0-61.44 45.61-112.854 106.773-126.016V466.09a173.824 173.824 0 0 1-82.347-37.867L266.688 528.512c4.352 10.837 6.763 22.57 6.763 34.816 0 54.357-46.891 98.41-104.726 98.41-57.813 0-104.725-44.053-104.725-98.41s46.89-98.41 104.725-98.41c22.4 0 43.136 6.613 60.16 17.898l137.558-100.33a151.467 151.467 0 0 1-19.03-73.43c0-88.213 76.118-159.723 169.984-159.723z" fill="#cdcdcd" p-id="7582"></path></svg>