<?xml version="1.0" standalone="no"?><!DOCTYPE svg PUBLIC "-//W3C//DTD SVG 1.1//EN" "http://www.w3.org/Graphics/SVG/1.1/DTD/svg11.dtd"><svg t="1559636688507" class="icon" style="" viewBox="0 0 1024 1024" version="1.1" xmlns="http://www.w3.org/2000/svg" p-id="1792" xmlns:xlink="http://www.w3.org/1999/xlink" width="16" height="16"><defs><style type="text/css"></style></defs><path d="M772.102946 802.282293L772.102946 868.441085 772.102946 802.282293Z" fill="#cdcdcd" p-id="1793"></path><path d="M548.679387 931.310971L548.679387 530.374486 895.478881 338.352101l0.029676 254.140141 57.290821 0-0.038886-332.669682L516.033873 7.745405 79.366605 259.923868l0.059352 504.253572 436.726619 252.076132 255.951393-147.81351 0-66.157769L548.679387 931.310971zM480.497519 929.525302L136.712685 731.09395l-0.046049-397.695674L480.497519 533.768793 480.497519 929.525302zM501.285984 467.705168L169.218006 274.191826 516.042059 73.89908l351.349113 202.796776L522.42135 467.705168 501.285984 467.705168z" fill="#cdcdcd" p-id="1794"></path><path d="M1023.978511 708.730617L928.742473 708.730617 928.742473 616.565521 867.337961 616.565521 867.337961 708.730617 772.102946 708.730617 772.102946 770.135128 867.337961 770.135128 867.337961 868.441085 928.742473 868.441085 928.742473 770.135128 1023.978511 770.135128Z" fill="#cdcdcd" p-id="1795"></path></svg>