<?xml version="1.0" standalone="no"?><!DOCTYPE svg PUBLIC "-//W3C//DTD SVG 1.1//EN" "http://www.w3.org/Graphics/SVG/1.1/DTD/svg11.dtd"><svg t="1565686818326" class="icon" viewBox="0 0 1024 1024" version="1.1" xmlns="http://www.w3.org/2000/svg" p-id="5673" width="16" height="16" xmlns:xlink="http://www.w3.org/1999/xlink"><defs><style type="text/css"></style></defs><path d="M1011.2 352 876.8 128 614.4 128 512 288 409.6 128 147.2 128 12.8 352 153.6 576l192 0-96 160L384 960l268.8 0 134.4-224L684.8 576l192 0L1011.2 352zM512 416 576 512 454.4 512 512 416zM192 512 89.6 352 185.6 192l192 0 102.4 160L384 512 192 512zM704 736 614.4 896l-192 0L320 736 416 576l192 0L704 736zM646.4 512 550.4 352l0 0 0 0L646.4 192l192 0 96 160L838.4 512 646.4 512z" p-id="5674" fill="#cdcdcd"></path></svg>